<svg width="30" height="30" viewBox="0 0 30 30" fill="none" xmlns="http://www.w3.org/2000/svg">
<g id="shield_person">
<mask id="mask0_1267_9929" style="mask-type:alpha" maskUnits="userSpaceOnUse" x="0" y="0" width="30" height="30">
<rect id="Bounding box" width="30" height="30" fill="#D9D9D9"/>
</mask>
<g mask="url(#mask0_1267_9929)">
<path id="shield_person_2" d="M15 16.25C13.7708 16.25 12.7344 15.8281 11.8906 14.9844C11.0469 14.1406 10.625 13.1042 10.625 11.875C10.625 10.6458 11.0469 9.60938 11.8906 8.76563C12.7344 7.92188 13.7708 7.5 15 7.5C16.2292 7.5 17.2656 7.92188 18.1094 8.76563C18.9531 9.60938 19.375 10.6458 19.375 11.875C19.375 13.1042 18.9531 14.1406 18.1094 14.9844C17.2656 15.8281 16.2292 16.25 15 16.25ZM15 13.75C15.5417 13.75 15.9896 13.5729 16.3437 13.2187C16.6979 12.8646 16.875 12.4167 16.875 11.875C16.875 11.3333 16.6979 10.8854 16.3437 10.5313C15.9896 10.1771 15.5417 10 15 10C14.4583 10 14.0104 10.1771 13.6563 10.5313C13.3021 10.8854 13.125 11.3333 13.125 11.875C13.125 12.4167 13.3021 12.8646 13.6563 13.2187C14.0104 13.5729 14.4583 13.75 15 13.75ZM15 27.5C12.1042 26.7708 9.71354 25.1094 7.82813 22.5156C5.94271 19.9219 5 17.0417 5 13.875V6.25L15 2.5L25 6.25V13.875C25 17.0417 24.0573 19.9219 22.1719 22.5156C20.2865 25.1094 17.8958 26.7708 15 27.5ZM15 5.15625L7.5 7.96875V13.875C7.5 15 7.65625 16.0938 7.96875 17.1563C8.28125 18.2188 8.70833 19.2188 9.25 20.1562C10.125 19.7188 11.0417 19.375 12 19.125C12.9583 18.875 13.9583 18.75 15 18.75C16.0417 18.75 17.0417 18.875 18 19.125C18.9583 19.375 19.875 19.7188 20.75 20.1562C21.2917 19.2188 21.7188 18.2188 22.0312 17.1563C22.3438 16.0938 22.5 15 22.5 13.875V7.96875L15 5.15625ZM15 21.25C14.25 21.25 13.5208 21.3333 12.8125 21.5C12.1042 21.6667 11.4271 21.8958 10.7812 22.1875C11.3854 22.8125 12.0417 23.3542 12.75 23.8125C13.4583 24.2708 14.2083 24.625 15 24.875C15.7917 24.625 16.5417 24.2708 17.25 23.8125C17.9583 23.3542 18.6146 22.8125 19.2188 22.1875C18.5729 21.8958 17.8958 21.6667 17.1875 21.5C16.4792 21.3333 15.75 21.25 15 21.25Z" fill="#0F5190"/>
</g>
</g>
</svg>
